HIERARCHY
ROOT pelvis
{
  OFFSET 0 100 0
  CHANNELS 6 Xposition Yposition Zposition Zrotation Xrotation Yrotation
  JOINT pelvis_right_femur
  {
    OFFSET -10.78128 -3.44521 -0.5502486
    CHANNELS 3 Zrotation Xrotation Yrotation
    JOINT right_femur_tibia
    {
      OFFSET -0.8047443 -44.0398 -0.1307829
      CHANNELS 3 Zrotation Xrotation Yrotation
      JOINT right_tibia_foot
      {
        OFFSET 3.006224 -47.83518 -5
        CHANNELS 3 Zrotation Xrotation Yrotation
        End Site
        {
          OFFSET 0 -5 15
        }
      }
    }
  }
  JOINT pelvis_left_femur
  {
    OFFSET 10.78128 -3.44521 -0.5502486
    CHANNELS 3 Zrotation Xrotation Yrotation
    JOINT left_femur_tibia
    {
      OFFSET 0.8047443 -44.0398 -0.1307829
      CHANNELS 3 Zrotation Xrotation Yrotation
      JOINT left_tibia_foot
      {
        OFFSET -4.370144 -48.10324 -4.275266
        CHANNELS 3 Zrotation Xrotation Yrotation
        End Site
        {
          OFFSET 0 -5 15
        }
      }
    }
  }
  JOINT pelvis_spine1
  {
    OFFSET 0 6.468898 -3.129235
    CHANNELS 3 Zrotation Xrotation Yrotation
    JOINT spine1
    {
      OFFSET 0 23.15396 4.99043
      CHANNELS 3 Zrotation Xrotation Yrotation
      JOINT spine2
      {
        OFFSET 0 20.79997 -5.064912
        CHANNELS 3 Zrotation Xrotation Yrotation
        JOINT neck
        {
          OFFSET 0 14.38658 9.616178
          CHANNELS 3 Zrotation Xrotation Yrotation
          End Site
          {
            OFFSET 0 20 0
          }
        }
      }
      JOINT right_manubrium
      {
        OFFSET -5.722621 16.35077 3.967754
        CHANNELS 3 Zrotation Xrotation Yrotation
        JOINT right_clavicle
        {
          OFFSET -13.16364 1.694482 -4.693211
          CHANNELS 3 Zrotation Xrotation Yrotation
          JOINT right_humerus
          {
            OFFSET -28.5034 -0.3100689 -2.792744
            CHANNELS 3 Zrotation Xrotation Yrotation
            JOINT right_radius
            {
              OFFSET -25.15693 0.02248979 -1.271978
              CHANNELS 3 Zrotation Xrotation Yrotation
              End Site
              {
                OFFSET -15 0 0
              }
            }
          }
        }
      }
      JOINT left_manubrium
      {
        OFFSET 5.722621 16.35077 3.967754
        CHANNELS 3 Zrotation Xrotation Yrotation
        JOINT left_clavicle
        {
          OFFSET 13.16364 1.694482 -4.693211
          CHANNELS 3 Zrotation Xrotation Yrotation
          JOINT left_humerus
          {
            OFFSET 29.39168 -1.063119 -2.237045
            CHANNELS 3 Zrotation Xrotation Yrotation
            JOINT left_radius
            {
              OFFSET 24.59957 -0.9528479 0.9047498
              CHANNELS 3 Zrotation Xrotation Yrotation
              End Site
              {
                OFFSET 15 -0 -0
              }
            }
          }
        }
      }
    }
  }
}
MOTION
Frames: 11
Frame Time: 0.0416666666667
-1796.473 103.4409 1656.073 -13.28368 0.9277938 -105.7668 -3.856646 21.13712 -3.290372 -0 41.12267 -0 -15.48233 6.011308 5.031184 -6.242324 -3.536411 -21.17861 -0 13.45907 -0 -8.545835 -10.72553 23.7162 -0.2389254 -3.249867 7.059195 0.766568 16.11372 -4.666805 0.4921891 19.48623 4.593102 2.664747 -19.72318 4.863547 2.967478 -28.71786 14.37805 84.34095 20.21371 -8.811162 -0 0 25.94372 -23.28692 15.88524 14.80592 2.920737 -21.99547 -8.637091 -95.18565 8.738952 34.50228 0 0 -3.751979 11.99853 11.72532 -1.008452
-1801.646 104.2965 1655.388 -13.98492 1.39806 -105.1949 -3.618431 16.64731 -3.667793 -0 46.53222 -0 -16.46242 9.078581 5.699054 -5.981585 0.363147 -21.42662 -0 13.75309 -0 -9.198941 -11.705 22.93273 -0.2829218 -3.159385 7.228468 0.7357283 16.01594 -4.65887 0.3144472 19.55109 4.844772 3.098281 -19.33789 4.600314 2.955345 -28.39838 14.26155 84.38332 20.51028 -9.220848 -0 0 25.62811 -22.93927 15.28813 14.21588 2.963835 -22.34546 -8.959066 -95.32247 8.448857 34.72509 0 0 -3.757997 12.09232 11.46746 -0.8616617
-1806.341 105.2163 1654.734 -14.28117 2.07286 -104.6227 -2.975601 10.47061 -4.18298 -0 49.89395 -0 -17.11271 10.1376 5.976577 -5.334118 4.0898 -21.08583 -0 13.68619 -0 -9.439823 -12.50768 21.7315 -0.3454946 -3.073692 7.421859 0.7071642 15.88535 -4.680581 0.1122966 19.64012 5.091511 3.558071 -18.86952 4.277889 2.908183 -28.07764 14.11882 84.44091 20.83857 -9.658594 -0 0 25.3385 -22.53747 14.5884 13.53641 3.018369 -22.75278 -9.281325 -95.46963 8.151683 34.96409 0 0 -3.761346 12.13854 11.23744 -0.6858161
-1810.612 105.994 1654.11 -14.03355 2.738766 -104.2084 -2.136973 3.266401 -4.880361 -0 49.67732 -0 -17.16726 8.960895 5.738926 -4.554224 7.304981 -20.32497 -0 13.11034 -0 -9.184882 -13.42962 20.28338 -0.4017818 -3.003008 7.628901 0.6736313 15.74621 -4.736108 -0.09737706 19.74441 5.296448 4.007658 -18.32422 3.897307 2.824529 -27.77577 13.96364 84.51318 21.12666 -10.10552 -0 0 25.11754 -22.15462 13.87112 12.82255 3.101346 -23.22438 -9.576871 -95.61351 7.86059 35.17896 0 0 -3.76987 12.12006 11.08761 -0.4963015
-1814.607 106.4122 1653.488 -13.172 3.104746 -104.0325 -1.33641 -4.027342 -5.824424 -0 45.28394 -0 -16.60834 6.24214 5.114164 -3.981005 9.817548 -19.26551 -0 12.05486 -0 -8.365696 -14.81545 18.78806 -0.4322236 -2.950722 7.83424 0.6287106 15.61994 -4.817737 -0.2987454 19.85012 5.442054 4.421972 -17.72912 3.474213 2.717702 -27.50209 13.81297 84.58819 21.32419 -10.53656 -0 0 24.98612 -21.85457 13.21728 12.13878 3.22349 -23.7481 -9.827865 -95.736 7.581574 35.32938 0 0 -3.796758 12.04342 11.03582 -0.3165545
-1818.51 106.3381 1652.813 -11.77217 2.990009 -104.0648 -0.7234819 -10.5948 -6.982363 -0 37.62173 -0 -15.64778 3.293292 4.395472 -3.849755 11.67832 -17.98521 -0 10.84447 -0 -7.019488 -16.74977 17.42776 -0.4355059 -2.915837 8.025169 0.5741692 15.51341 -4.912998 -0.4836649 19.94454 5.536464 4.792123 -17.12565 3.036492 2.607195 -27.2603 13.67944 84.65084 21.42759 -10.92884 -0 0 24.93826 -21.65208 12.66369 11.53014 3.378314 -24.29105 -10.02955 -95.82717 7.318096 35.40509 0 0 -3.854108 11.92746 11.05855 -0.1575269
-1822.485 105.7783 1652.036 -10.0429 2.455031 -104.2037 -0.285629 -16.00384 -8.127589 -0 28.66275 -0 -14.52714 1.218712 3.784245 -4.144681 13.08419 -16.59907 -0 9.992053 -0 -5.382399 -18.9395 16.31962 -0.4315022 -2.897467 8.195044 0.5221707 15.41576 -5.012696 -0.6524718 20.0218 5.604565 5.117968 -16.55904 2.618913 2.509751 -27.05729 13.56737 84.68971 21.48055 -11.26358 -0 0 24.95235 -21.50533 12.19278 11.00981 3.541568 -24.80516 -10.18317 -95.89214 7.078531 35.43553 0 0 -3.939231 11.78964 11.10914 -0.01152727
-1826.63 104.8582 1651.13 -8.218465 1.735111 -104.3438 0.1334868 -20.17814 -8.918064 -0 20.40571 -0 -13.41059 0.3836937 3.282819 -4.659391 14.20874 -15.26412 -0 9.938337 -0 -3.80015 -20.93599 15.49474 -0.4544967 -2.896641 8.34097 0.4916939 15.30402 -5.112957 -0.8098389 20.08426 5.675352 5.398177 -16.07334 2.259884 2.436666 -26.90681 13.47397 84.6983 21.55657 -11.52205 -0 0 25.0041 -21.33805 11.75184 10.56762 3.678508 -25.23367 -10.28707 -95.94842 6.87993 35.47705 0 0 -4.025536 11.6416 11.13976 0.1386837
-1830.985 103.7628 1650.085 -6.471886 1.084967 -104.4182 0.7306334 -23.23766 -9.062563 -0 14.17296 -0 -12.40313 0.538096 2.781524 -5.160426 15.1232 -14.10853 -0 10.90364 -0 -2.508986 -22.38705 14.94293 -0.5425733 -2.916152 8.460519 0.5032477 15.15242 -5.214278 -0.9597219 20.14075 5.772644 5.625281 -15.70904 1.998791 2.394034 -26.82593 13.39261 84.67621 21.73776 -11.68769 -0 0 25.07012 -21.06591 11.27885 10.18165 3.752884 -25.51946 -10.33412 -96.01827 6.747046 35.59072 0 0 -4.069148 11.49215 11.1159 0.3075431
-1835.546 102.6819 1648.904 -4.901706 0.6800384 -104.4089 1.631348 -25.37148 -8.425435 -0 10.48981 -0 -11.59005 1.185602 2.184863 -5.485873 15.8063 -13.19807 -0 12.89425 -0 -1.514048 -23.09724 14.66579 -0.7252852 -2.96082 8.550673 0.5737786 14.9431 -5.321607 -1.10115 20.20321 5.907686 5.785786 -15.49779 1.870098 2.382344 -26.82643 13.31596 84.63328 22.09276 -11.75938 -0 0 25.1246 -20.61758 10.72517 9.823102 3.736803 -25.61937 -10.31528 -96.11982 6.708036 35.81715 0 0 -4.033118 11.35137 11.02685 0.4975522
-1840.28 101.7739 1647.604 -3.551898 0.5866911 -104.3382 2.829282 -26.77023 -7.056067 -0 9.231042 -0 -11.05091 1.847034 1.482791 -5.565559 16.18045 -12.54889 -0 15.74773 -0 -0.6392989 -22.99154 14.66576 -1.011958 -3.037419 8.60822 0.7117709 14.67568 -5.443823 -1.225398 20.28235 6.073731 5.863295 -15.45619 1.895638 2.396758 -26.90596 13.23873 84.59215 22.65599 -11.76513 -0 0 25.13653 -19.95243 10.07451 9.459835 3.620342 -25.51934 -10.22536 -96.25934 6.788447 36.15476 0 0 -3.914922 11.23374 10.89137 0.6940997
